<svg width="60" height="60" viewBox="0 0 60 60" fill="none" xmlns="http://www.w3.org/2000/svg">
<g clip-path="url(#clip0_37_4)">
<g filter="url(#filter0_d_37_4)">
<path d="M56.3504 7.74088C55.2266 9.3355 54.2998 10.9933 53.6508 12.7968C53.4734 13.2899 53.3921 13.8214 53.0958 14.2657C52.5343 15.1076 51.6515 15.5057 50.7648 15.8758C50.4995 15.9866 50.3228 16.1247 50.1964 16.3764C49.8251 17.1153 49.7002 17.9378 49.3826 18.697C49.0371 19.5232 48.3422 19.8805 47.5895 20.1932C47.2869 20.319 46.9858 20.4486 46.6856 20.58C46.021 20.8709 46.0339 21.529 45.8985 22.0888C45.642 23.1499 45.088 23.9839 44.0745 24.4143C42.4225 25.1156 41.1177 26.3485 39.601 27.254C38.8558 27.6989 38.1374 28.1839 37.5303 28.812C36.7926 29.5752 36.7478 29.865 37.1791 30.7768C38.4734 33.5131 39.6169 36.3166 40.5908 39.1764C41.4882 41.8119 42.5713 44.3633 43.6534 46.9208C44.2547 48.3419 44.9482 49.7259 45.4059 51.2077C45.4504 51.352 45.435 51.5079 45.5115 51.639C45.6158 51.8178 45.6554 52.0085 45.4656 52.1349C45.2341 52.2889 45.0684 52.1317 44.9003 51.9677C44.0442 51.1324 43.3706 50.1455 42.6192 49.2237C42.4693 49.0398 42.3137 48.8765 42.0689 48.6352C42.2124 49.3699 42.5074 49.9369 42.7117 50.5333C43.1212 51.7286 43.6848 52.8687 43.9859 54.1044C44.0184 54.238 44.0557 54.3684 44.0399 54.4971C44.0212 54.6486 44.163 54.868 43.9412 54.9415C43.7202 55.0147 43.4998 54.9504 43.3671 54.7309C42.9753 54.0824 42.5754 53.4384 42.2011 52.7799C41.5415 51.6194 40.8991 50.4491 40.2473 49.2842C40.2166 49.2294 40.1647 49.1865 40.0502 49.0546C40.0533 49.7607 40.2806 50.3262 40.3855 50.9088C40.514 51.6225 40.7124 52.3233 40.8604 53.0339C40.9143 53.2928 40.8512 53.5765 40.6052 53.6954C40.3918 53.7986 40.1763 53.6269 40.0454 53.458C39.5545 52.824 39.2734 52.0837 39.0223 51.3314C38.8575 50.8379 38.6938 50.3439 38.5387 49.8775C38.3942 49.8559 38.4183 49.924 38.4087 49.9603C38.3226 50.2832 38.3707 50.7102 37.8825 50.7448C37.4064 50.7785 37.3635 50.3631 37.2463 50.0538C36.5879 48.3151 36.2836 46.4918 35.9311 44.6757C35.6519 43.2376 35.4591 41.7717 34.9153 40.3955C34.4258 39.1569 33.4809 38.3844 32.2615 37.939C30.4976 37.2947 28.9862 36.2479 27.5164 35.108C26.4886 34.3109 25.5843 33.3931 24.6907 32.4619C23.708 31.4378 22.8704 30.297 22.211 29.0379C21.181 27.0711 20.0498 25.1673 18.6295 23.4571C18.0881 22.8051 17.5098 22.1746 16.7933 21.6792C16.2138 21.2785 15.5794 21.1355 14.9196 21.1257C13.0402 21.0976 11.1583 21.0658 9.28068 21.1303C7.5028 21.1913 5.72728 21.3269 3.89849 21.3209C3.85043 21.2115 3.85043 21.1021 3.85043 20.9518C4.07474 20.6572 4.39063 20.6319 4.69191 20.5887C7.19242 20.23 9.70802 19.9894 12.2089 19.6349C12.9187 19.5343 13.6189 19.3706 14.3187 19.2107C14.8195 19.0962 15.1522 18.7757 15.45 18.3855C15.9088 17.7843 16.4405 17.2535 17.0764 16.8385C19.0052 15.5798 21.7052 15.8362 23.3748 17.4405C23.904 17.949 24.4279 18.4626 24.862 19.0626C25.1944 19.522 25.3863 19.5672 25.9175 19.36C26.9728 18.9485 27.8012 18.196 28.6601 17.4951C30.8565 15.7028 32.9368 13.7723 35.1655 12.0183C36.4149 11.0351 37.7508 10.1716 39.0326 9.2331C40.3023 8.30344 41.5094 7.30008 42.6291 6.19417C43.0669 5.76178 43.5029 5.32919 43.985 4.94511C44.1326 4.82754 44.2732 4.70161 44.4573 4.64506C44.6613 4.58238 44.8649 4.56687 45.0355 4.72571C45.1986 4.87746 45.1613 5.06592 45.1091 5.2516C44.9131 5.94927 44.5673 6.58356 44.2133 7.20429C43.1468 9.07453 41.9632 10.8715 40.7501 12.6066C42.7528 11.0763 44.9131 9.73087 47.2827 8.74098C48.0561 8.41791 48.8515 8.15362 49.6615 7.94182C50.9674 7.60037 52.2814 7.29024 53.5884 6.95292C54.1868 6.79845 54.797 6.72544 55.4068 6.6562C55.7496 6.61728 56.0969 6.65566 56.3278 7.03663C56.3504 7.27731 56.3504 7.48666 56.3504 7.74088Z" fill="#8E54B6"/>
</g>
</g>
<defs>
<filter id="filter0_d_37_4" x="-0.149567" y="4.60046" width="60.5" height="58.3699" filterUnits="userSpaceOnUse" color-interpolation-filters="sRGB">
<feFlood flood-opacity="0" result="BackgroundImageFix"/>
<feColorMatrix in="SourceAlpha" type="matrix" values="0 0 0 0 0 0 0 0 0 0 0 0 0 0 0 0 0 0 127 0" result="hardAlpha"/>
<feOffset dy="4"/>
<feGaussianBlur stdDeviation="2"/>
<feComposite in2="hardAlpha" operator="out"/>
<feColorMatrix type="matrix" values="0 0 0 0 0.257705 0 0 0 0 0.143607 0 0 0 0 0.336393 0 0 0 0.3 0"/>
<feBlend mode="normal" in2="BackgroundImageFix" result="effect1_dropShadow_37_4"/>
<feBlend mode="normal" in="SourceGraphic" in2="effect1_dropShadow_37_4" result="shape"/>
</filter>
<clipPath id="clip0_37_4">
<rect width="60" height="60" fill="white"/>
</clipPath>
</defs>
</svg>
