<svg width="60" height="60" viewBox="0 0 60 60" fill="none" xmlns="http://www.w3.org/2000/svg">
<g clip-path="url(#clip0_37_2)">
<g filter="url(#filter0_d_37_2)">
<path d="M3.89185 7.74089C5.01565 9.33551 5.94249 10.9934 6.59145 12.7968C6.76888 13.2899 6.85014 13.8214 7.14646 14.2657C7.70801 15.1076 8.59079 15.5057 9.47743 15.8758C9.74281 15.9866 9.91948 16.1247 10.0459 16.3764C10.4172 17.1153 10.5421 17.9378 10.8597 18.697C11.2052 19.5232 11.9001 19.8805 12.6528 20.1932C12.9554 20.319 13.2565 20.4486 13.5567 20.58C14.2213 20.871 14.2084 21.529 14.3438 22.0888C14.6003 23.1499 15.1543 23.984 16.1678 24.4143C17.8198 25.1157 19.1246 26.3485 20.6412 27.254C21.3865 27.6989 22.1049 28.1839 22.712 28.812C23.4497 29.5752 23.4945 29.865 23.0632 30.7768C21.7689 33.5131 20.6254 36.3166 19.6515 39.1764C18.754 41.8119 17.671 44.3634 16.5889 46.9208C15.9875 48.3419 15.2941 49.726 14.8364 51.2077C14.7918 51.352 14.8073 51.5079 14.7308 51.639C14.6265 51.8178 14.5869 52.0085 14.7767 52.1349C15.0082 52.2889 15.1739 52.1317 15.3419 51.9677C16.1981 51.1324 16.8717 50.1455 17.623 49.2238C17.773 49.0398 17.9286 48.8765 18.1734 48.6352C18.0299 49.3699 17.7349 49.9369 17.5306 50.5333C17.1211 51.7287 16.5575 52.8688 16.2564 54.1044C16.2239 54.238 16.1866 54.3684 16.2024 54.4971C16.2211 54.6486 16.0793 54.868 16.301 54.9415C16.522 55.0148 16.7425 54.9504 16.8752 54.7309C17.267 54.0824 17.6669 53.4384 18.0412 52.7799C18.7008 51.6194 19.3432 50.4492 19.995 49.2842C20.0257 49.2294 20.0776 49.1865 20.1921 49.0546C20.189 49.7607 19.9616 50.3262 19.8567 50.9088C19.7282 51.6225 19.5299 52.3233 19.3819 53.0339C19.3279 53.2928 19.3911 53.5765 19.6371 53.6954C19.8505 53.7986 20.066 53.6269 20.1968 53.458C20.6878 52.824 20.9688 52.0837 21.22 51.3314C21.3848 50.8379 21.5485 50.3439 21.7035 49.8775C21.8481 49.856 21.8239 49.924 21.8336 49.9603C21.9197 50.2833 21.8715 50.7102 22.3597 50.7448C22.8359 50.7785 22.8788 50.3631 22.9959 50.0538C23.6544 48.3151 23.9586 46.4918 24.3112 44.6757C24.5904 43.2376 24.7832 41.7717 25.327 40.3956C25.8164 39.1569 26.7614 38.3844 27.9807 37.9391C29.7446 37.2947 31.2561 36.248 32.7259 35.108C33.7536 34.311 34.658 33.3931 35.5516 32.4619C36.5343 31.4378 37.3719 30.2971 38.0313 29.0379C39.0613 27.0711 40.1925 25.1673 41.6127 23.4571C42.1542 22.8051 42.7325 22.1746 43.449 21.6792C44.0285 21.2785 44.6629 21.1355 45.3226 21.1257C47.2021 21.0976 49.0839 21.0658 50.9616 21.1303C52.7395 21.1913 54.515 21.3269 56.3438 21.3209C56.3918 21.2115 56.3918 21.1022 56.3918 20.9518C56.1675 20.6572 55.8517 20.6319 55.5504 20.5887C53.0499 20.23 50.5343 19.9895 48.0333 19.6349C47.3236 19.5343 46.6234 19.3706 45.9236 19.2107C45.4228 19.0962 45.09 18.7757 44.7923 18.3856C44.3335 17.7843 43.8018 17.2535 43.1659 16.8385C41.237 15.5798 38.5371 15.8362 36.8675 17.4405C36.3382 17.949 35.8144 18.4627 35.3803 19.0626C35.0479 19.522 34.856 19.5672 34.3248 19.3601C33.2695 18.9485 32.441 18.196 31.5822 17.4951C29.3858 15.7028 27.3055 13.7724 25.0767 12.0184C23.8274 11.0351 22.4915 10.1716 21.2097 9.23312C19.94 8.30345 18.7329 7.3001 17.6132 6.19419C17.1754 5.7618 16.7394 5.3292 16.2573 4.94512C16.1097 4.82755 15.969 4.70162 15.785 4.64507C15.581 4.58239 15.3774 4.56688 15.2067 4.72572C15.0437 4.87747 15.081 5.06593 15.1332 5.25161C15.3292 5.94928 15.6749 6.58357 16.0289 7.20431C17.0955 9.07454 18.2791 10.8715 19.4921 12.6066C17.4895 11.0763 15.3292 9.73088 12.9596 8.74099C12.1862 8.41793 11.3908 8.15363 10.5808 7.94183C9.2749 7.60038 7.96089 7.29026 6.65393 6.95293C6.05545 6.79846 5.44532 6.72545 4.83547 6.65621C4.49265 6.61729 4.14539 6.65567 3.91449 7.03664C3.89184 7.27732 3.89185 7.48667 3.89185 7.74089Z" fill="#6155B8"/>
</g>
</g>
<defs>
<filter id="filter0_d_37_2" x="-0.108154" y="4.60047" width="60.5" height="58.3699" filterUnits="userSpaceOnUse" color-interpolation-filters="sRGB">
<feFlood flood-opacity="0" result="BackgroundImageFix"/>
<feColorMatrix in="SourceAlpha" type="matrix" values="0 0 0 0 0 0 0 0 0 0 0 0 0 0 0 0 0 0 127 0" result="hardAlpha"/>
<feOffset dy="4"/>
<feGaussianBlur stdDeviation="2"/>
<feComposite in2="hardAlpha" operator="out"/>
<feColorMatrix type="matrix" values="0 0 0 0 0.167273 0 0 0 0 0.144 0 0 0 0 0.336 0 0 0 0.3 0"/>
<feBlend mode="normal" in2="BackgroundImageFix" result="effect1_dropShadow_37_2"/>
<feBlend mode="normal" in="SourceGraphic" in2="effect1_dropShadow_37_2" result="shape"/>
</filter>
<clipPath id="clip0_37_2">
<rect width="60" height="60" fill="white" transform="matrix(-1 -8.74228e-08 -8.74228e-08 1 60 6.10352e-05)"/>
</clipPath>
</defs>
</svg>
