<svg id="OBJECTS" xmlns="http://www.w3.org/2000/svg" xmlns:xlink="http://www.w3.org/1999/xlink" viewBox="0 0 2500 1600"><defs><style>.cls-1{fill:none;stroke:#230545;stroke-miterlimit:10;}.cls-2{fill:url(#linear-gradient);}.cls-3{fill:#230545;}.cls-4{fill:url(#linear-gradient-2);}.cls-5{fill:url(#linear-gradient-3);}</style><linearGradient id="linear-gradient" x1="1569.57" y1="1018.77" x2="1762.6" y2="1422.5" gradientUnits="userSpaceOnUse"><stop offset="0" stop-color="#ffd71d"/><stop offset="1" stop-color="#804700"/></linearGradient><linearGradient id="linear-gradient-2" x1="1414.98" y1="1015" x2="1566.65" y2="1424.77" gradientUnits="userSpaceOnUse"><stop offset="0" stop-color="#ff484e"/><stop offset="1" stop-color="#6c2b5c"/></linearGradient><linearGradient id="linear-gradient-3" x1="1781.23" y1="949.46" x2="2052.64" y2="1517.11" xlink:href="#linear-gradient"/></defs><title>Mesa de trabajo 6</title><path class="cls-1" d="M1260,1407.67s170.3-173,231.49-377.84"/><polygon class="cls-2" points="1792.21 1410.33 1331.88 1410.33 1510.16 968.62 1970.49 968.62 1792.21 1410.33"/><polygon class="cls-3" points="1810.84 1410.33 1350.51 1410.33 1528.79 968.62 1989.12 968.62 1810.84 1410.33"/><polygon class="cls-4" points="1709.72 1410.33 1350.51 1410.33 1528.79 968.62 1608.61 968.62 1709.72 1410.33"/><polygon class="cls-5" points="2281.81 1410.33 1651.18 1410.33 1510.16 968.62 2140.78 968.62 2281.81 1410.33"/><path class="cls-1" d="M1510.16,968.62s122.4,345.91,404.45,444.36"/><path class="cls-1" d="M2140.78,968.62s50.56,319.3,311.32,444.36"/><polygon class="cls-3" points="1512.82 1165.53 1496.86 1410.33 1518.14 1410.33 1512.82 1165.53"/></svg>