<svg id="OBJECTS" xmlns="http://www.w3.org/2000/svg" xmlns:xlink="http://www.w3.org/1999/xlink" viewBox="0 0 2500 1600"><defs><style>.cls-1{fill:none;}.cls-2{clip-path:url(#clip-path);}.cls-3{clip-path:url(#clip-path-2);}.cls-4{fill:url(#radial-gradient);}</style><clipPath id="clip-path"><rect class="cls-1" y="-0.15" width="2500" height="1600.3"/></clipPath><clipPath id="clip-path-2"><path class="cls-1" d="M2598.45,1589c.71-13.88,15.73-418.64,15.73-418.64-76.42-155.18,16.49-431.69-105.68-532.55-70.72-58.39-107.95-154.36-166.86-225.15-105.65-127-240.77-199.48-416.39-188.84-164.12,9.95-298.07,103.26-388.87,233.43-66.17,94.87-165.94,56.61-265.7,115.14-90.83,53.28-201.16-46.54-279.39,23.95-52.05,46.9-444.36,234.16-570.75,387.16-69.39,84-110.23,310.89-71.29,331.49,0,0,27.39,39.7,11,203.22-2.65,26.53-21.14,48.23-33.89,70.8Z"/></clipPath><radialGradient id="radial-gradient" cx="1663.07" cy="1321.64" r="1264.95" gradientUnits="userSpaceOnUse"><stop offset="0" stop-color="#fb8198"/><stop offset="0.07" stop-color="#fb859a"/><stop offset="0.13" stop-color="#fb909f"/><stop offset="0.19" stop-color="#fba2a7"/><stop offset="0.25" stop-color="#fbbdb2"/><stop offset="0.31" stop-color="#fbdec1"/><stop offset="0.32" stop-color="#fbe7c5"/><stop offset="0.62" stop-color="#42b2fc"/><stop offset="1" stop-color="#21295b"/></radialGradient></defs><title>Mesa de trabajo 10</title><g class="cls-2"><g class="cls-3"><path class="cls-4" d="M2666.37,934.25q.31-99.87,37.43-189.69c-66.56-31.82-137.35-58.92-195.3-106.76-70.72-58.39-107.95-154.36-166.86-225.15-105.65-127-240.77-199.48-416.39-188.84-164.12,9.95-298.07,103.26-388.87,233.43-66.17,94.87-122.17,204-221.94,262.58-90.83,53.28-208.33,57.8-286.56,128.29C975.83,895,949.5,964.34,901.62,1015.49c-58.06,62-141.78,91.64-221.53,120.94-102.27,37.57-197,81.81-245.58,184.79-30.13,63.93-49.31,131.13-74.23,197-9.44,24.93-21.14,48.23-33.89,70.8h2340Z"/></g></g></svg>