<svg xmlns="http://www.w3.org/2000/svg" xmlns:xlink="http://www.w3.org/1999/xlink" viewBox="0 0 2500 1600"><defs><style>.cls-1{fill:none;}.cls-2{isolation:isolate;}.cls-3{clip-path:url(#clip-path);}.cls-4{fill:#1d3a53;}.cls-5{fill:#1d5a6b;}.cls-6{fill:#001032;}.cls-7{fill:url(#linear-gradient);}.cls-8{fill:url(#linear-gradient-2);}.cls-9{fill:#cfcfcf;}.cls-12,.cls-9{mix-blend-mode:multiply;}.cls-10{fill:#0c3860;}.cls-11{fill:#0a1b45;}.cls-12{fill:#f1e7e7;}.cls-13{fill:#282b51;}.cls-14{fill:#342544;}.cls-15{fill:#273058;}.cls-16{fill:#2d233a;}</style><clipPath id="clip-path"><rect class="cls-1" y="-0.15" width="2500" height="1600.3"/></clipPath><linearGradient id="linear-gradient" x1="1403.84" y1="1843.66" x2="1119.92" y2="802.59" gradientUnits="userSpaceOnUse"><stop offset="0" stop-color="#21295b"/><stop offset="1" stop-color="#42b2fc"/></linearGradient><linearGradient id="linear-gradient-2" x1="1299.76" y1="1737.19" x2="1188" y2="998.8" xlink:href="#linear-gradient"/></defs><title>Mesa de trabajo 7</title><g class="cls-2"><g id="OBJECTS"><g class="cls-3"><path class="cls-4" d="M1231,1298c-19,9.5-44.72,19.81-42.79,26.92-2.49-14.93,1.94-21.22,8.59-41.17-7.6,5.7-24.21,23.7-24,35.53l-3.17-59.12-16.78,52.78-.73-12.74-3.66,7.33-.78-24.1-9,46.39c2-21.71-4.4-44.29-17.12-60.3l3,40.4a109.52,109.52,0,0,0-20.89-37.38,124,124,0,0,1,6.57,40.75,144.66,144.66,0,0,1-8.74-72,130.63,130.63,0,0,0-15,65.57,73.33,73.33,0,0,0-5.43-32.45L1077,1298l-1.55-20.4-3.06,20.59c-.93-24-11.84-47.26-28.69-61.09a113.69,113.69,0,0,1,11.67,55l-6.45-20.52-1.14,15.63c-.25-9.8-4.08-19.4-10.32-25.95a88,88,0,0,1-11.8,45.84l4.56-62.48L1009,1293.48l6.34-60-19.88,45.81A76,76,0,0,1,1001,1253l-8.44,17.46c1.15-18.87-5-38.18-16.44-51.57a121.76,121.76,0,0,1-1.54,78c-2.32-22.31-13-43.26-28.64-56.31l12.61,57c-13.43-17.71-33.5-28.28-53.76-28.3,13.31,9.6,24,24.08,30.16,40.87-3.7-5.13-7.81-10.57-13.43-12s-12.6,3.86-11.45,10.43c.61-6.34-4.08-12.68-9.54-12.92s-10.52,5.7-10.31,12.08a39.67,39.67,0,0,0-13.59-15.32l10.2,24.28c-1.34-4.09-4.64-7.21-8.34-7.9a23.21,23.21,0,0,0,2.89,17.73c-6.33-19.44-21.38-34.66-38.76-39.21,15.31,17.57,25.87,40.71,29.82,65.35l-10-6.95q-.14,9.82-.27,19.63c-8.71-.92-17.65,5-21.43,14.24,26.77-18.4,45.74,12,76.8,11.4s76.29-11.31,107.34-10.45c68.23,1.89,131.51-28.36,198.88-11.56C1219.22,1356.54,1229.07,1326.47,1231,1298Z"/><path class="cls-5" d="M1226.45,1316.53c20.5,7.74,48.25,16.13,46.17,21.92,2.69-12.16-2.1-17.28-9.27-33.52,8.2,4.64,26.12,19.3,25.87,28.93l3.42-48.14,18.1,43,.79-10.38,4,6,.85-19.63,9.68,37.77c-2.17-17.68,4.75-36.07,18.47-49.1l-3.23,32.89a86.46,86.46,0,0,1,22.54-30.44,78.77,78.77,0,0,0-7.09,33.19,91.4,91.4,0,0,0,9.43-58.63,85.72,85.72,0,0,1,16.15,53.39,46.87,46.87,0,0,1,5.86-26.42l4.48,19.26,1.68-16.61,3.3,16.77c1-19.57,12.77-38.48,31-49.75a74,74,0,0,0-12.6,44.78l7-16.71,1.23,12.73a28.63,28.63,0,0,1,11.14-21.13A58.58,58.58,0,0,0,1448,1324l-4.92-50.88,22.83,39.76-6.84-48.87,21.45,37.3a49.19,49.19,0,0,0-5.94-21.36l9.1,14.22c-1.24-15.36,5.4-31.09,17.73-42a76.35,76.35,0,0,0,1.66,63.5c2.51-18.16,14-35.22,30.91-45.85l-13.6,46.43c14.49-14.42,36.15-23,58-23-14.36,7.81-25.9,19.61-32.55,33.28,4-4.18,8.43-8.61,14.49-9.75s13.6,3.14,12.36,8.5c-.65-5.16,4.4-10.33,10.29-10.52s11.35,4.64,11.13,9.83a37.52,37.52,0,0,1,14.67-12.47l-11,19.77a11.6,11.6,0,0,1,9-6.43,15.08,15.08,0,0,1-3.12,14.43c6.83-15.83,23.07-28.23,41.82-31.93-16.52,14.31-27.91,33.15-32.18,53.21l10.84-5.66q.15,8,.29,16c9.4-.75,19,4.09,23.12,11.6-28.89-15-49.35,9.81-82.86,9.28s-82.31-9.21-115.82-8.51c-73.62,1.54-141.9-23.09-214.58-9.42C1239.13,1364.22,1228.5,1339.74,1226.45,1316.53Z"/><path class="cls-6" d="M690.32,1318c-12.25,5.32-22.67,12.73-30.14,21.43.84-13.26,9-26.21,22.33-35.52-15.76,7.94-29.21,18.16-39.28,29.85l3.16-57.74-8.91,35.54-.58-20.24c-8.89-4.94-16.1-11.39-20.85-18.66l-1.62,41c-3.07-23.15-19.34-45.28-44.35-60.33l18.64,41.29-6-9.1q-.05,3.83-.11,7.66l-11-16-4.07,40L553,1266.88l-13.18,37.76,3.62-63.44-24,45,3.43-21.11-4.93,9.73c2.64-7.35.59-15.49-5.47-21.74l-6.26,36.79c1.84-24.49-11.17-49.36-35.08-67.07,13.25,17.51,19.25,37.74,17.07,57.55-3.84-17-14.17-33.22-29.62-46.49l7.89,30.14-4.41-13-1.79,12a170.23,170.23,0,0,1-4.52-70.6l-24.84,49.74,2-13.46-2.84,6.8-4.57-16.25-7.85,31.74c.37-18.46-14.14-36.7-36.6-46a101.84,101.84,0,0,1,16.52,40.47l-10.45-7.45,1.37,13.16c-14.15-14.71-32.3-27.47-53.17-37.38l23,43.77c-14.76-14.51-25.21-31.22-30.47-48.72a111.2,111.2,0,0,0,.9,59.3l-8.7-21.49L321.5,1268l-3.2-11.48-1.81,10.67c-.69-9.48-5.44-18.79-13.47-26.4l6,41.71c-7.1-18.16-25.17-34-48.71-42.77,11.34,13.7,19.22,28.83,23.16,44.46-7.68-4-13-10.21-14.58-16.89a128.21,128.21,0,0,1-22.22,35.5,59.6,59.6,0,0,0-3.36-31.59l-7.45,23.13c1-7.2-3.65-14.66-11.79-19l-26.76,52.52a43.92,43.92,0,0,0-.86-38.07L186,1328l-10.78-18.67c-4,4.42-5.47,10-4,15.11L146,1292.9l-2.95,43.93-8.61-1.24-8.3,36.55c1.31-14.56-7.5-29.41-23.08-38.93a131.44,131.44,0,0,1,9.62,50.29,140.5,140.5,0,0,0,51.63-7.57c18.73,7,41.42,5.19,62,1.74s41.21-8.43,62.29-7.32c23.73,1.25,45.14,10,67.57,15.65,65.53,16.39,137.43,5.4,206.9,4.08,29.67-.56,59.78.66,88.64-4.25s57.19-17.37,67.76-37c-15.52,4.18-31.56,9.74-47.66,12.38C663.51,1348,677.53,1327.7,690.32,1318Z"/><path class="cls-4" d="M445.45,1333.07a23.23,23.23,0,0,0,25.67,8L481.75,1354l-8.36-60.82L502.15,1360a133.45,133.45,0,0,1,19.24-99.17,148.82,148.82,0,0,0-4.19,86.26,119.68,119.68,0,0,1,16.62-70.68L531,1316.39l3.19-16.95,1.75,10.94a120.86,120.86,0,0,0,1.84-65.53l32.79,74.33,5.12-68.83,11.87,51.24c-3.49-23.6,6.61-48.72,25.46-63.34a137.67,137.67,0,0,0-12,63.19,57.87,57.87,0,0,1,22.63-42.06l-9.53,40.71,5.48-11.76-1,25a143.13,143.13,0,0,1,92-55.08A180.5,180.5,0,0,1,692,1304.56l18-30.79-4.28,36.15,10.77-32.57q.23,18.32.47,36.64a144.71,144.71,0,0,0,.08-76.15A166.83,166.83,0,0,1,742,1306.91l5.8-21,6.72,26.77,4.58-7.38,3.85,14.55a138.93,138.93,0,0,1,41.58-46.52l-19.85,52.3a60.58,60.58,0,0,1,40.17-26.79l-18.2,33.29a44.41,44.41,0,0,1,18-16.4l-4.25,23a112.81,112.81,0,0,0,31.31-49.13l11.46,64.88,13.26-34.48a70.37,70.37,0,0,0,9.7,38.39l5.24-47.53,8.37,31.6,2.5-20.26c-.2,4.43,6.16,6.62,10,4.33s5.37-6.93,6.51-11.22a181.65,181.65,0,0,0,6-48.09l21.05,61.4c.88-28,22.18-54.21,49.47-60.74a74.61,74.61,0,0,0-22,53.79,41.62,41.62,0,0,1,28.76-28.17,83.59,83.59,0,0,0-16.62,32.69l15.83-13.77-2,6.7a210.1,210.1,0,0,1,58.74-14.75,60.18,60.18,0,0,0-39.59,27.51,119.68,119.68,0,0,1,48.73-3.09,31.08,31.08,0,0,0-25.14,16.4c16.94,1.82,34-12.07,35.63-29l-9,41.88a108.39,108.39,0,0,0,19.48-40.25l-5.54,27.77,12.19-29.78a256.61,256.61,0,0,1-2.8,66L435.16,1393.4c15.21-6.38,33.5-11.47,47.08-20.58C473.33,1358.25,457.38,1345.57,445.45,1333.07Z"/><path class="cls-5" d="M1169.4,1341a18,18,0,0,1-19.87,6.19l-8.23,10,6.47-47.09-22.26,51.75a103.32,103.32,0,0,0-14.89-76.78,115.22,115.22,0,0,1,3.24,66.79,92.66,92.66,0,0,0-12.87-54.72l2.19,30.93-2.47-13.12-1.36,8.47a93.57,93.57,0,0,1-1.42-50.73l-25.39,57.55-4-53.29-9.19,39.67a53.46,53.46,0,0,0-19.71-49,106.59,106.59,0,0,1,9.33,48.92,44.81,44.81,0,0,0-17.52-32.56l7.38,31.52-4.24-9.1.79,19.33a110.82,110.82,0,0,0-71.2-42.65A139.75,139.75,0,0,0,978.48,1319l-13.9-23.84,3.31,28-8.34-25.22q-.18,14.18-.36,28.37a112,112,0,0,1-.07-59,129.16,129.16,0,0,0-19.3,53.48l-4.49-16.23-5.2,20.73-3.55-5.71-3,11.26a107.57,107.57,0,0,0-32.19-36l15.37,40.5a46.91,46.91,0,0,0-31.1-20.74l14.09,25.77a34.38,34.38,0,0,0-13.93-12.7l3.29,17.83a87.34,87.34,0,0,1-24.24-38L846,1357.67,835.76,1331a54.48,54.48,0,0,1-7.51,29.73l-4.06-36.8-6.48,24.47-1.93-15.68c.15,3.43-4.77,5.13-7.71,3.35s-4.16-5.36-5-8.68a140.64,140.64,0,0,1-4.67-37.24l-16.3,47.54c-.68-21.72-17.17-42-38.3-47a57.77,57.77,0,0,1,17.06,41.65,32.22,32.22,0,0,0-22.27-21.81,64.72,64.72,0,0,1,12.86,25.31l-12.25-10.67,1.55,5.19a162.68,162.68,0,0,0-45.48-11.42,46.59,46.59,0,0,1,30.65,21.3,92.67,92.67,0,0,0-37.73-2.39,24.06,24.06,0,0,1,19.46,12.69c-13.12,1.41-26.31-9.35-27.58-22.48l7,32.43a83.93,83.93,0,0,1-15.09-31.16l4.29,21.5-9.44-23.06a198.66,198.66,0,0,0,2.16,51.09l508.44,9c-11.78-4.94-25.94-8.88-36.45-15.93C1147.82,1360.54,1160.17,1350.72,1169.4,1341Z"/><path class="cls-4" d="M2619.15,1226.17c-19,9.5-44.72,19.81-42.79,26.92-2.49-14.93,1.94-21.22,8.59-41.17-7.6,5.7-24.21,23.7-24,35.53l-3.17-59.12L2541,1241.12l-.73-12.74-3.66,7.33-.78-24.1-9,46.39c2-21.71-4.4-44.29-17.12-60.3l3,40.4a109.52,109.52,0,0,0-20.89-37.38,124,124,0,0,1,6.57,40.75,144.65,144.65,0,0,1-8.74-72,130.62,130.62,0,0,0-15,65.57,73.33,73.33,0,0,0-5.43-32.45l-4.15,23.66-1.55-20.4-3.06,20.59c-.93-24-11.84-47.26-28.69-61.09a113.69,113.69,0,0,1,11.67,55l-6.45-20.52-1.14,15.63c-.25-9.8-4.08-19.4-10.32-25.95a88,88,0,0,1-11.8,45.84l4.56-62.48-21.16,48.83,6.34-60-19.88,45.81a76,76,0,0,1,5.5-26.23l-8.44,17.46c1.15-18.87-5-38.18-16.44-51.57a121.76,121.76,0,0,1-1.54,78c-2.32-22.31-13-43.26-28.64-56.31l12.61,57c-13.43-17.71-33.5-28.28-53.76-28.3,13.31,9.6,24,24.08,30.16,40.87-3.7-5.13-7.81-10.57-13.43-12s-12.6,3.86-11.45,10.43c.61-6.34-4.08-12.68-9.54-12.92s-10.52,5.7-10.31,12.08a39.67,39.67,0,0,0-13.59-15.32L2275,1245c-1.34-4.09-4.64-7.21-8.34-7.9a23.21,23.21,0,0,0,2.89,17.73c-6.33-19.44-21.39-34.66-38.76-39.21,15.31,17.57,25.87,40.71,29.82,65.35l-10-6.95q-.14,9.82-.27,19.63c-8.71-.92-17.65,5-21.43,14.24,26.77-18.4,45.74,12,76.8,11.4S2382,1308,2413,1308.81c68.23,1.89,131.51-28.36,198.88-11.56C2607.4,1284.74,2617.25,1254.67,2619.15,1226.17Z"/><path class="cls-6" d="M2123.88,1270.8c-12.25,5.32-22.67,12.73-30.14,21.43.84-13.26,9-26.21,22.33-35.52-15.76,7.94-29.21,18.16-39.28,29.85l3.16-57.74-8.91,35.54-.58-20.24c-8.89-4.94-16.1-11.39-20.85-18.66l-1.62,41c-3.07-23.15-19.34-45.28-44.35-60.33l18.64,41.29-6-9.1q-.05,3.83-.11,7.66l-11-16-4.07,40-14.52-50.33-13.18,37.76L1977,1194l-24,45,3.43-21.11-4.93,9.73c2.64-7.35.59-15.49-5.47-21.74l-6.26,36.79c1.84-24.49-11.17-49.36-35.08-67.07,13.25,17.51,19.25,37.74,17.07,57.55-3.84-17-14.17-33.22-29.62-46.49l7.89,30.14-4.41-13-1.79,12a170.23,170.23,0,0,1-4.52-70.6l-24.84,49.74,2-13.46-2.84,6.8-4.57-16.25-7.85,31.74c.37-18.46-14.14-36.7-36.6-46a101.84,101.84,0,0,1,16.52,40.47l-10.45-7.45,1.37,13.16c-14.15-14.71-32.3-27.47-53.17-37.38l23,43.77c-14.76-14.51-25.21-31.22-30.47-48.72a111.2,111.2,0,0,0,.9,59.3l-8.7-21.49,1.47,21.46-3.2-11.48-1.81,10.67c-.69-9.48-5.44-18.79-13.47-26.4l6,41.71c-7.1-18.16-25.17-34-48.71-42.77,11.34,13.7,19.22,28.83,23.16,44.46-7.68-4-13-10.21-14.58-16.89a128.21,128.21,0,0,1-22.22,35.5,59.6,59.6,0,0,0-3.36-31.59l-7.45,23.13c1-7.2-3.65-14.66-11.79-19l-26.76,52.52a43.92,43.92,0,0,0-.86-38.07l-10.51,38.2-10.78-18.67c-4,4.42-5.47,10-4,15.11l-25.18-31.53-2.95,43.93-8.61-1.24-8.3,36.55c1.31-14.56-7.5-29.41-23.08-38.93a131.43,131.43,0,0,1,9.62,50.29,140.51,140.51,0,0,0,51.63-7.57c18.73,7,41.42,5.19,62,1.74s41.21-8.43,62.29-7.32c23.73,1.25,45.14,10,67.57,15.65,65.53,16.39,137.43,5.4,206.9,4.08,29.67-.56,59.78.66,88.64-4.25s57.19-17.37,67.76-37c-15.52,4.18-31.56,9.74-47.66,12.38C2097.08,1300.85,2111.09,1280.53,2123.88,1270.8Z"/><path class="cls-4" d="M1879,1285.9a23.23,23.23,0,0,0,25.67,8l10.63,12.95L1907,1246l28.75,66.84a133.45,133.45,0,0,1,19.24-99.17,148.82,148.82,0,0,0-4.19,86.26,119.68,119.68,0,0,1,16.62-70.68l-2.83,39.94,3.19-16.95,1.75,10.94a120.86,120.86,0,0,0,1.84-65.53l32.79,74.33,5.12-68.83,11.87,51.24c-3.49-23.6,6.61-48.72,25.46-63.34a137.67,137.67,0,0,0-12,63.19,57.88,57.88,0,0,1,22.63-42.06l-9.53,40.72,5.48-11.76-1,25a143.13,143.13,0,0,1,92-55.08,180.51,180.51,0,0,1-18.44,46.33l18-30.79-4.28,36.15,10.77-32.57q.23,18.32.47,36.64a144.71,144.71,0,0,0,.08-76.15,166.83,166.83,0,0,1,24.93,69.07l5.8-21,6.72,26.77,4.58-7.37,3.85,14.55a138.93,138.93,0,0,1,41.58-46.52l-19.85,52.3a60.58,60.58,0,0,1,40.17-26.79l-18.2,33.29a44.41,44.41,0,0,1,18-16.4l-4.25,23a112.8,112.8,0,0,0,31.31-49.13l11.46,64.88,13.26-34.48a70.37,70.37,0,0,0,9.7,38.39l5.24-47.53,8.37,31.6,2.5-20.26c-.2,4.43,6.16,6.62,10,4.33s5.37-6.93,6.51-11.22a181.65,181.65,0,0,0,6-48.09l21.05,61.4c.88-28,22.18-54.21,49.47-60.74a74.61,74.61,0,0,0-22,53.79,41.62,41.62,0,0,1,28.76-28.17,83.59,83.59,0,0,0-16.62,32.69l15.83-13.78-2,6.71a210.1,210.1,0,0,1,58.74-14.75,60.18,60.18,0,0,0-39.59,27.51,119.69,119.69,0,0,1,48.73-3.09,31.08,31.08,0,0,0-25.14,16.4c16.94,1.82,34-12.07,35.63-29l-9,41.88a108.39,108.39,0,0,0,19.48-40.25l-5.54,27.77,12.19-29.78a256.61,256.61,0,0,1-2.8,66l-656.68,11.57c15.21-6.38,33.5-11.47,47.08-20.58C1906.89,1311.07,1890.95,1298.39,1879,1285.9Z"/><path class="cls-6" d="M2666.37,1330.82a97.21,97.21,0,0,1-17-8.68c4.33-7.09,10.53-13.66,17-20v-7.47a19.34,19.34,0,0,1-7-1l-9.53,11.61,7.49-54.52-25.77,59.91a119.62,119.62,0,0,0-17.24-88.89,133.39,133.39,0,0,1,3.75,77.32,107.28,107.28,0,0,0-14.9-63.35l2.53,35.8-2.86-15.19-1.57,9.81a108.33,108.33,0,0,1-1.65-58.74l-29.39,66.63-4.59-61.7L2555,1258.3a61.89,61.89,0,0,0-22.82-56.78,123.4,123.4,0,0,1,10.8,56.64,51.88,51.88,0,0,0-20.29-37.7l8.54,36.5-4.91-10.54.92,22.38a128.29,128.29,0,0,0-82.43-49.38,161.81,161.81,0,0,0,16.53,41.53l-16.09-27.6,3.83,32.4-9.66-29.19-.42,32.84a129.71,129.71,0,0,1-.08-68.26,149.54,149.54,0,0,0-22.34,61.92l-5.2-18.79-6,24-4.11-6.61-3.45,13a124.53,124.53,0,0,0-37.27-41.7l17.8,46.88a54.3,54.3,0,0,0-36-24l16.32,29.84a39.8,39.8,0,0,0-16.12-14.7l3.81,20.64a101.11,101.11,0,0,1-28.07-44L2308,1305.75l-11.88-30.9a63.08,63.08,0,0,1-8.7,34.41l-4.7-42.61-7.5,28.33-2.24-18.16c.18,4-5.53,5.93-8.93,3.88s-4.82-6.21-5.84-10.05a162.83,162.83,0,0,1-5.4-43.11l-18.87,55c-.79-25.14-19.88-48.59-44.34-54.45a66.87,66.87,0,0,1,19.75,48.22,37.3,37.3,0,0,0-25.78-25.25,74.93,74.93,0,0,1,14.89,29.3l-14.19-12.35,1.8,6a188.32,188.32,0,0,0-52.66-13.23,53.94,53.94,0,0,1,35.49,24.65,107.28,107.28,0,0,0-43.68-2.77,27.86,27.86,0,0,1,22.53,14.7c-13.24,1.42-26.54-7.86-30.71-20.33l6.86,31.85a97.17,97.17,0,0,1-17.47-36.08l5,24.9-10.93-26.69a230,230,0,0,0,2.5,59.15l563.41,9.93Z"/><path class="cls-7" d="M2506.55,1208.4c-92.52-1-235.26,7.17-302.34,20.72-121.19,16.79-216.16,40-316.56,61.68s-211.93,42.6-350.14,52.69c-216.56,15.8-422.37-22.84-628.81-2.25-120.06,12-331.75-24.11-437-36-197.08-22.17-327.19,20.67-503.53,1.83v178h2357l59.95-.78c48.18-.64,98.6-1.43,139.46-6.62,18.14-2.31,32.76-5.24,44.64-8.6V1210.89C2551.46,1209.52,2530.76,1208.65,2506.55,1208.4Z"/><path class="cls-8" d="M2545.4,1616.83V1306.61c-100.45.79-238.67,26-403.82-3.54-118.62-21.21-241.13,3.89-361.57,6.93-262.92,5-549.91,35.48-841.94,42.07-234.16,5.28-252.78,15.92-604,5.28C178.6,1352.62,71.54,1345-31.87,1336.56v263.1l456,17.17Z"/><path class="cls-9" d="M1150.94,1399.08c-44.46-3.46-89.09-6.93-134.57-8.21-42.3-1.19-85.29-.48-126.82-3.42-87.56-6.19-142.79-1.19-230.26-7.51-77.07-5.57-174.28,12.89-252.32,9.19-88.18-4.18-182,10.41-267.41,1.84-14.35-1.44-120.25-10.6-171.43-14.27V1392l126.14,84.81c616.68-8.1,1233.52-16,1850.2-15.94Z"/><path class="cls-9" d="M2401.49,1420.31c-471.67,22.69-945.1,17.53-1417.85,12.36,73.89.81,144.15-17.71,215.05-27.85,93.9-13.43,194.79-15.26,290.34-19,195.1-7.63,391-5.66,585.69,5.91Q2238.84,1401.48,2401.49,1420.31Z"/><path class="cls-9" d="M2666.37,1410.76q-44-3.28-88.16-5.92c-194.7-11.56-390.58-13.54-585.69-5.91-95.55,3.74-196.44,5.57-290.34,19-70.9,10.14-141.16,28.66-215.05,27.85,393.08,4.3,786.62,8.53,1179.24-3.18Z"/><path class="cls-9" d="M2666.37,1314.38q-113-11.11-226.72-17.9c-194.7-11.56-390.59-13.54-585.69-5.91-95.55,3.74-196.44,5.57-290.34,19-70.9,10.14-141.16,28.66-215.05,27.85,439.33,4.81,879.25,9.57,1317.8-8Z"/><path class="cls-9" d="M2578.2,1404.84c10.63,45.65-150,16.35-296.39,5.48-309.91-23-638.7,14-970.49,6.39,73.89,1.71,144.15-37.39,215.05-58.79,93.9-28.35,194.79-32.21,290.34-40.1,195.1-16.11,365,17,559.68,41.44C2485.8,1373,2566.52,1354.67,2578.2,1404.84Z"/><path class="cls-10" d="M2578.16,1616.83l-3.66-169c-274.9,1.26-479.47,4.43-707.79,6.37-368.5,3.13-638.61-3.33-1105.53,0-284.15,2-572.56-11.81-793.06-.24v162.87Z"/><path class="cls-11" d="M2666.37,1512.11l-5.67,2.53a64.57,64.57,0,0,1,5.67-12.11v-17.41a114.9,114.9,0,0,0-32.15,14.44c2.52-2.89,5.16-6.14,4.61-9.77s-6.27-6.86-9.64-4.61l9.47-7.7a61.81,61.81,0,0,1-22.19,5.8l12.35-16.77a222.1,222.1,0,0,0-75.11,20.77l17.76-14.57c-20.57-1.43-41.31,2.22-58.76,10.34l7.39-16.5-31.56,6.7-11.95,11.63-11.16-29.51c-.25,18.07-19,34-41.19,35l18.15-13.28-49.11,12.55a27,27,0,0,1,7.23-15.63c-11,1.11-20.88,6.45-26.24,14.13a56,56,0,0,1-19.47-16.17,16.67,16.67,0,0,1,3.1,12.39c-19-7.74-43.54-3.44-55.69,9.74l-5.14-15.19-4.72,8.33c-5.52-19.74-16.18-38.72-31.06-55.32,20.07,28.74,16.49,66.42-8.6,90.48l-4.84-15.68-4.89,15.52c2.21-21.63-17-44.31-43.06-50.83,21.11,11.68,35.37,31.42,37.31,51.67-16.84-17.23-44.08-27.54-70.43-26.66a49.07,49.07,0,0,1,10.56,22.52l-18.62-12,5,11.56c-8.78-1.84-18.5,2-21.73,8.69a76.13,76.13,0,0,1,4-37.23c-21.1,12.34-34.44,32.8-35.42,54.35a60.5,60.5,0,0,1-9.17-29.64l-6.22,20.85a26.27,26.27,0,0,0-16.11-5.29,38.22,38.22,0,0,1,14.43,17.13,91.11,91.11,0,0,0-50.55-7.57l6,9.31c-12.54-7.29-31.4-5.39-40.36,4.05l2.79-24.27c-24,9.46-42.38,27.34-49.63,48.33l-6-23.3-5.19,9a30.12,30.12,0,0,1-3-27.24l-24.41,44-9-13.1c-4.5,2.5-11.34-1.21-12.69-5.66s.93-8.88,3.16-12.94c-21.24,5.32-33.64,26.06-26.07,43.6a208.94,208.94,0,0,0-49.29-13.78,71,71,0,0,1,16.82,16.95,40,40,0,0,0-17.18-4.15c9.43,5.06,16,13.58,17.43,22.52-15.6-15.29-43.59-21.34-65.25-14.09-.83-4.62-8.85-6.5-13.75-4.32s-7.3,6.7-9.38,10.93c-4.74-13.21,1.32-28.09,14.58-35.83-17.56,5.27-30.44,18.86-32.36,34.14l-8.75-6.34a1.4,1.4,0,0,1-1.74,1.3L1709,1595.1l19.65,12.63c-12.86-8.26-36.12-4.77-48.45.63-6.64,2.91-10.3,5.61-12.37,8.47H2659c2.11-8.81,4.63-17.54,7.38-26.21Z"/><path class="cls-11" d="M1746.93,1616.83c-7.25-13.2-14.35-26.29-21.18-39.14a70.5,70.5,0,0,1-11.05,32.46q-3.45-13.46-6.56-26.76a35.33,35.33,0,0,1-13.44,20.6q-2.34-8.82-4.53-17.55c1.81,5.44-8.69,8.28-14.75,4.68a11.35,11.35,0,0,1-4.57-15.07q-14.34,7.19-29.12,14.48-3.67-13-7-25.86-16.11,8.54-32.67,17.12-3.29-10.16-6.36-20.16-8,8-16.11,15.88,1.61-9.15,3.34-18.25-9.63,8.85-19.36,17.63,1.49-14.33,3.27-28.53c-8.58,12.06-21.11,22.94-36.76,31.61q1.26-14.17,2.81-28.17-13.94,10.6-28,21.05c-4.78-10.59-4.65-21.91.16-32.81q-15.86,13.39-31.87,26.5c-2.07-18.85-21.34-34.73-48.77-39.59q3.38,14.42,7.21,29.32-9-9.87-17.7-19.25-2.4,7.62-4.74,15.26c-10.52-4.28-18.32-10.21-22.41-17.07-5.62,6.39-14.37,12.14-24.75,16.25,1.18-9.6,6.72-19.46,15.88-28.75-26.49,8.77-52.85,17.18-78.77,25.07q3.92-8.88,7.91-17.76c-3.42,5.16-7.93,11-16.93,13.71-7.85,2.35-17-1.1-14.56-4.79q-5.86,5.15-11.69,10.23-7.74-10.09-15.08-19.73c-1.33,8.5-9.19,17.71-21.26,24.69,1.21-10.81-4.52-20.68-15.66-27.54-2,7.86-6.92,15.94-14.2,23.51.27-3.48.41-5.22.69-8.67a26,26,0,0,1-10.68,3.07q-7.48.19-14.83.31c-4.61-6.28-4.32-13.88.69-21.15a284.89,284.89,0,0,1-73.23,27.77c1.65-9.61,6.6-19,14.58-27.9-8.28,4.38-16.64,8.5-25.1,12.62,4-1.73,4.76-5.58.72-7.09-3.36-1.26-8.76.27-9.61,2.31q-.21-7.34-.44-14.69c-6.58,8.14-15.65,15.69-26.68,22.23,7.42-13.51.6-28.87-17.85-39.63q-4.08,10.3-8.14,20.58-1.52-7.05-3.08-14.17c-.84,4.68-3.9,9.14-8.77,12.85-8-12.07-12.25-25.11-12.34-38.12-8.84,11.88-25.23,21.46-45.68,26.86q1.28-11.58,2.52-23.25-8.34,5.69-16.62,11.43c1.59-2.08-1.93-5.72-6.62-6.22-5.59-.59-10,2.09-11.14,5.16q-4.87-10.51-9.91-21.3-8.76,9.79-17.41,19.7c-6.59-13.15-15.92-26.42-27.86-39.65,4.41,13.55,3.44,26.66-2.44,38.45-3.73-13.78-17.46-27.92-37-38.15q.77,6.19,1.52,12.33a9.33,9.33,0,0,0-4.5-4.92c-4-2.15-9.81-.43-9.9,1.84q-8.21-11.71-16.65-23.78c-1.35,9.33-6.51,17.78-14.74,24.62q-8.33-18.18-17-37-5,12.37-10,24.79c1-3.57,1.82-7.79-2.24-11.19-3.44-2.88-10.88-2.56-11.55,0-2-10.48-3-15.76-5.06-26.43-9.35,12-23.72,21.74-41.3,28.56q-6.9-12.61-14-25.47-4.71,9.37-9.35,18.83c-22.12-13.84-38.92-32.51-46.59-52.09a71.87,71.87,0,0,1-4.1,34.88,217.37,217.37,0,0,1-28.9-39.55c-2.73,12.26-4.09,18.4-6.76,30.7l-11.51-15.22c4.69,9.31-18.67,8.48-25.75-.16s-8-20.23-19-26.26l.09,1c-.47-1.1-1-2.2-1.52-3.29-13,12.36-29.31,22.93-47.6,31.45q.83-7.09,1.68-14.16c-3.4,2.42-14.44.84-19.62-3.23s-10.16-7.94-15.21-11.78q-4.13,6.6-8.23,13.21-17.27-14.48-34.72-28.84a62.73,62.73,0,0,1,4.71,32.08c-11-6.13-19.6-14.91-24.36-24.9-.61,9.64-.9,14.45-1.49,24.09q-7.87-7.93-15.79-15.84c-1.24,9-7.88,17.51-17.49,22.46-6-17.33-9.08-26-15.18-43.3q-8.16,15.92-16.21,31.86l-3.84-17.88q-5.51,14.13-11,28.28c-5.8-17.83-16.48-34.58-31.21-48.71a83.78,83.78,0,0,1-5.24,42q-16.14-13.4-32.42-26.7-2.84,8.3-5.65,16.6a28.64,28.64,0,0,0-12-12.76q-2,8.83-4,17.66-37.75-19.48-76.05-38.43,8,13.07,15.88,26.16-22.84-10.18-45.86-20.16c2.41,2.46,2.53,6.66-1.08,8.52-4.32,2.22-10.26-.82-10.78-4.48q-1.52,10.38-3,20.77c-26.33-15.61-73.51-51.9-73.51-51.9s18.9,30.24,13.3,46.61q-26.07-7.58-52.33-14.91.87,7.67,1.74,15.33c-1.6-4.5-12.34-.8-17.87,4.87v247.3Z"/><path class="cls-12" d="M827,1375.38l330.7,3.3c63.62.63,130.81.71,185.93-19.57-9,3.33-55.12-5.68-66.68-6.64q-35.06-2.92-70.32-4.66c-48.07-2.37-96.33-3.1-144.53-2.18-47,.9-93.27,5.33-140.09,7.3C885.45,1354.47,850.51,1353.86,827,1375.38Z"/><polygon class="cls-13" points="2189.17 1389.49 2163.84 1389.49 2163.84 898.03 2189.17 898.03 2189.17 1389.49 2189.17 1389.49"/><polygon class="cls-6" points="2240.75 1087.94 2253.19 1134.19 2216.16 1109.98 2229.38 1144.2 2176.51 1100.74 2170.2 1147.83 2156.17 1102.14 2151.86 1157.49 2133.29 1107.96 2128.75 1089.23 2112.35 1146.82 2105.99 1103.95 2031.18 1144.24 2083.71 1077.72 2031.18 1104.58 2089.82 998.64 2046.48 1031.61 2087.27 970.04 2044.06 1001.68 2111.34 897.07 2076.77 921.8 2109.6 871.57 2075.9 898.25 2132.48 787.23 2086.55 819.42 2123.92 751.26 2097.54 774.49 2143.33 683.35 2115.88 705.57 2143.07 663.36 2118.77 675.19 2156.89 605.84 2142.08 614.56 2127.53 623.04 2182.9 489.75 2233.05 622.2 2207.57 605.88 2240.81 682.41 2219.69 660.71 2268.14 778.19 2230.83 733.54 2253.42 798.81 2233.17 786.42 2271.09 841.36 2237.02 823.82 2286.22 897.31 2250.24 869.58 2285.24 936.97 2258.89 917.58 2311.85 1008.27 2263.74 970.6 2288.07 1011.55 2255.47 985.39 2318.91 1074.79 2282.81 1062.89 2310.37 1092.96 2273.55 1088.43 2316.24 1136.36 2240.75 1087.94 2240.75 1087.94"/><polygon class="cls-14" points="2472.42 1422.73 2440.76 1422.73 2440.76 1101.34 2472.42 1101.34 2472.42 1422.73 2472.42 1422.73"/><polygon class="cls-6" points="2536.91 1298.22 2552.46 1346.17 2506.17 1321.07 2522.69 1356.55 2456.59 1311.49 2448.71 1360.31 2431.17 1312.93 2425.78 1370.32 2402.56 1318.97 2396.89 1299.56 2376.38 1359.26 2368.43 1314.82 2274.91 1356.58 2340.58 1287.62 2274.91 1315.46 2348.21 1205.64 2294.04 1239.81 2345.03 1175.99 2291 1208.79 2375.12 1100.34 2331.9 1125.98 2372.95 1073.9 2330.82 1101.57 2401.55 986.46 2344.13 1019.84 2390.85 949.18 2357.87 973.26 2415.11 878.77 2380.79 901.81 2414.79 858.05 2384.41 870.31 2432.07 798.42 2413.56 807.46 2395.37 816.25 2460.57 698.65 2464.58 678.07 2527.29 815.38 2495.43 798.46 2536.98 877.8 2510.58 855.3 2571.15 977.1 2524.5 930.81 2552.74 998.47 2527.43 985.63 2574.84 1042.59 2532.24 1024.4 2593.75 1100.59 2548.77 1071.84 2592.52 1141.71 2559.58 1121.6 2625.79 1215.62 2565.66 1176.57 2596.07 1219.02 2555.31 1191.9 2634.62 1284.58 2589.49 1272.25 2623.95 1303.42 2577.91 1298.72 2631.29 1348.41 2536.91 1298.22 2536.91 1298.22"/><polygon class="cls-15" points="2067.58 1413.89 2042.45 1413.89 2042.45 1127.91 2067.58 1127.91 2067.58 1413.89 2067.58 1413.89"/><polygon class="cls-16" points="2067.58 1413.89 2055.02 1413.89 2055.02 1127.91 2067.58 1127.91 2067.58 1413.89 2067.58 1413.89"/><polygon class="cls-4" points="2139.73 1290.68 2176 1308.5 2136.92 1244.33 2156.32 1262.51 2141.07 1213.48 2167.49 1243.08 2130.76 1144.39 2149.81 1177.1 2131.45 1107.23 2159.73 1152.74 2123 1044.52 2141 1071.28 2123.89 1025.75 2139.66 1040.96 2107.84 943.42 2140.57 985.85 2105.71 915.39 2117.83 926.56 2098.72 893.49 2123.05 911.19 2083.62 827.96 2095.33 839.03 2061.74 737.98 2060.63 725.43 2014.05 844.66 2026.15 837.58 2034.91 829.14 2030.14 839.72 1999.59 910.78 2028.19 875.06 1991.31 940.36 2022.77 912.87 1985.66 971.73 2002.43 956.27 1974.6 1016.35 2006.4 983.53 1984.7 1062.32 2001.11 1034.76 1975.13 1117.29 1998.1 1087.94 1969.27 1147.05 1969.27 1151.58 1985.43 1138.06 1969.27 1163.34 1969.27 1168.86 1985.29 1151.06 1969.27 1210.34 1969.27 1241.41 1974.51 1234.8 1969.27 1248.29 1969.27 1295.45 1985.93 1289.45 1977.51 1303.3 1969.27 1311.45 1969.27 1320.41 1984.8 1315.24 2021.36 1290.27 2005.84 1317.58 2047.62 1281.71 2072.23 1331.47 2069.55 1290.77 2132.35 1331.47 2116.44 1288.61 2161 1314.67 2139.73 1290.68 2139.73 1290.68"/><polygon class="cls-13" points="1945.36 1196.68 1928.13 1196.68 1928.13 984.13 1945.36 984.13 1945.36 1196.68 1945.36 1196.68"/><polygon class="cls-6" points="1980.45 1091.28 1988.92 1117.37 1963.72 1103.71 1972.72 1123.02 1936.74 1098.5 1932.45 1125.07 1922.9 1099.29 1919.97 1130.52 1907.34 1102.57 1904.25 1092 1893.09 1124.5 1888.76 1100.31 1837.86 1123.04 1873.6 1085.51 1837.86 1100.66 1877.76 1040.89 1848.27 1059.49 1876.03 1024.75 1846.62 1042.6 1892.4 983.58 1868.88 997.53 1891.22 969.19 1868.29 984.25 1906.79 921.6 1875.53 939.77 1900.96 901.31 1883.01 914.42 1914.17 862.99 1895.49 875.53 1913.99 851.72 1897.46 858.39 1923.4 819.26 1913.32 824.18 1903.42 828.96 1938.91 764.96 1941.09 753.76 1975.22 828.49 1957.88 819.28 1980.49 862.46 1966.13 850.22 1999.09 916.5 1973.7 891.31 1989.07 928.14 1975.3 921.15 2001.1 952.15 1977.91 942.25 2011.39 983.72 1986.91 968.07 2010.72 1006.1 1992.79 995.15 2028.83 1046.32 1996.1 1025.07 2012.65 1048.17 1990.47 1033.41 2033.63 1083.86 2009.07 1077.14 2027.83 1094.11 2002.77 1091.55 2031.82 1118.59 1980.45 1091.28 1980.45 1091.28"/><polygon class="cls-15" points="2306.47 1284.69 2284.35 1284.69 2284.35 1033.05 2306.47 1033.05 2306.47 1284.69 2306.47 1284.69"/><polygon class="cls-16" points="2306.47 1284.69 2295.41 1284.69 2295.41 1033.05 2306.47 1033.05 2306.47 1284.69 2306.47 1284.69"/><polygon class="cls-4" points="2388.66 1197.38 2349.46 1174.45 2363.46 1212.16 2308.2 1176.35 2310.55 1212.16 2288.9 1168.38 2252.13 1199.93 2265.79 1175.91 2233.62 1197.88 2203.56 1205.43 2227.21 1187.37 2234.62 1175.19 2188.96 1191.95 2218.28 1160.09 2190.6 1178.94 2224.57 1127.1 2196.91 1147.87 2234.06 1053.42 2212.57 1074.09 2234.18 1041.97 2215.28 1055.81 2245.32 997.87 2225.11 1023.7 2247.98 951.08 2233.54 975.33 2252.63 906 2224.65 934.88 2249.14 882.01 2234.38 895.61 2267.03 843.83 2239.35 868.01 2271.8 810.55 2246.64 841.99 2273.52 779.46 2277.72 770.15 2270.01 777.58 2259.36 783.81 2300.35 678.89 2301.32 689.94 2330.88 778.86 2320.58 769.11 2355.27 842.35 2333.86 826.77 2350.68 855.87 2340.01 846.04 2370.69 908.04 2341.89 870.71 2369.89 956.53 2356.01 943.15 2371.07 983.21 2355.23 959.67 2387.55 1054.89 2362.66 1014.85 2378.82 1076.33 2362.06 1047.55 2394.38 1134.39 2371.13 1108.34 2384.55 1151.48 2367.47 1135.48 2401.87 1191.95 2369.95 1176.27 2388.66 1197.38 2388.66 1197.38"/><polygon class="cls-15" points="2230.16 1395.98 2213.31 1395.98 2213.31 1204.18 2230.16 1204.18 2230.16 1395.98 2230.16 1395.98"/><polygon class="cls-16" points="2230.16 1395.98 2221.74 1395.98 2221.74 1204.18 2230.16 1204.18 2230.16 1395.98 2230.16 1395.98"/><polygon class="cls-5" points="2292.82 1329.43 2262.93 1311.95 2273.61 1340.69 2231.48 1313.4 2233.28 1340.69 2216.78 1307.33 2188.75 1331.38 2199.17 1313.07 2174.64 1329.81 2151.73 1335.56 2169.76 1321.8 2175.4 1312.52 2140.61 1325.29 2162.95 1301.01 2141.85 1315.38 2167.75 1275.86 2146.66 1291.69 2174.98 1219.71 2158.6 1235.46 2175.07 1210.98 2160.67 1221.53 2183.56 1177.37 2168.16 1197.06 2185.59 1141.71 2174.58 1160.19 2189.14 1107.35 2167.81 1129.36 2186.47 1089.07 2175.22 1099.43 2200.11 1059.96 2179.01 1078.39 2203.75 1034.6 2184.57 1058.56 2205.06 1010.9 2208.25 1003.8 2202.38 1009.47 2194.26 1014.22 2225.5 934.25 2226.25 942.67 2248.78 1010.44 2240.92 1003.01 2267.36 1058.83 2251.05 1046.96 2263.86 1069.14 2255.73 1061.65 2279.11 1108.9 2257.16 1080.45 2278.51 1145.86 2267.93 1135.66 2279.41 1166.2 2267.33 1148.25 2291.96 1220.83 2273 1190.31 2285.31 1237.17 2272.54 1215.23 2297.17 1281.42 2279.45 1261.57 2289.68 1294.45 2276.66 1282.26 2302.88 1325.29 2278.55 1313.34 2292.82 1329.43 2292.82 1329.43"/><path class="cls-6" d="M-31.87,1616.83H15.35c63.57-16.23,113.8-10.07,162.73,0H873.33a37.82,37.82,0,0,0-9.75-6.59c-12-6.12-35-11-48.33-3.48l20.36-11.45-21,2.49a1.4,1.4,0,0,1-1.66-1.4l-9.11,5.82c-1-15.36-13.09-29.69-30.3-36,12.79,8.5,18,23.71,12.45,36.62-1.84-4.34-4-9-8.73-11.46s-12.88-1.06-14,3.5c-21.2-8.51-49.5-4.11-66,10.24,1.93-8.84,9-17,18.72-21.46a40,40,0,0,0-17.39,3.14,71,71,0,0,1,17.78-15.93,209,209,0,0,0-50,10.87c8.58-17.07-2.58-38.5-23.47-45.05,2,4.18,4,8.74,2.39,13.1s-8.65,7.66-13,4.9l-9.71,12.55-21.78-45.36a30.13,30.13,0,0,1-4.59,27l-4.66-9.25-7.31,22.91c-6-21.37-23.3-40.3-46.71-51.16l1.36,24.39c-8.39-10-27.1-13-40-6.41l6.53-8.94a91.11,91.11,0,0,0-50.91,4.59,38.22,38.22,0,0,1,15.41-16.26,26.27,26.27,0,0,0-16.39,4.34l-5-21.18A60.5,60.5,0,0,1,437.65,1521c.28-21.57-11.83-42.78-32.17-56.34a76.13,76.13,0,0,1,1.85,37.41c-2.83-6.82-12.3-11.27-21.18-10l5.69-11.25-19.3,10.91a49.08,49.08,0,0,1,11.86-21.86c-26.25-2.42-54.05,6.28-71.87,22.48,3.13-20.1,18.51-39,40.28-49.39-26.4,5-46.91,26.49-46,48.22l-4-15.78-5.75,15.37c-23.64-25.49-25-63.32-3.28-90.83-15.83,15.7-27.58,34-34.25,53.4l-4.23-8.59-6,14.86c-11.36-13.87-35.65-19.6-55-13a16.67,16.67,0,0,1,3.82-12.19,56,56,0,0,1-20.39,15c-4.9-8-14.49-13.89-25.36-15.64a27,27,0,0,1,6.3,16l-48.29-15.41,17.34,14.32c-22.1-2.31-39.87-19.3-39.06-37.36l-12.87,28.81-11.24-12.31-31.11-8.54,6.41,16.9c-16.94-9.13-37.44-14-58.05-13.77l16.87,15.59a209.63,209.63,0,0,0-30.55-13.94Z"/></g></g></g></svg>