<svg width="50" height="50" viewBox="0 0 50 50" fill="none" xmlns="http://www.w3.org/2000/svg">
<g clip-path="url(#clip0_18_455)">
<path d="M50.1422 34.6459L50.1477 34.6352V34.6232V34.6219C50.1477 34.2499 50.1477 33.9195 50.1135 33.5766L50.1108 33.5494L50.0865 33.537C49.5845 33.2806 49.2331 33.1665 48.9393 33.2558C48.6449 33.3454 48.4263 33.6336 48.171 34.1198C48.005 34.4359 47.8452 34.7559 47.6857 35.0754C47.591 35.2652 47.4964 35.4547 47.4007 35.6431C47.3924 35.6594 47.3842 35.6755 47.3761 35.6917C47.2828 35.8769 47.1948 36.0513 47.0277 36.1735C47.0114 36.1598 46.9955 36.1468 46.9805 36.1345C46.969 36.1251 46.9581 36.1161 46.9478 36.1076C46.9151 36.0802 46.888 36.0556 46.8654 36.0285C45.9947 34.9855 45.1332 33.9399 44.3356 32.8383C42.9747 30.9591 41.7594 28.9914 40.6833 26.9425C39.3032 24.3151 38.0254 21.6361 36.9802 18.8564C36.8891 18.6141 36.7928 18.3738 36.6967 18.1339C36.24 16.994 35.7875 15.8644 35.9147 14.5836C35.9555 14.1726 35.9439 13.7548 35.9324 13.3411C35.9281 13.1835 35.9237 13.0264 35.9223 12.8706C35.9219 12.8276 35.9222 12.7842 35.9225 12.7403C35.9241 12.5272 35.9258 12.3046 35.8454 12.0836C35.6818 11.6336 35.3059 11.3017 34.8658 11.3547C34.6459 11.3811 34.4492 11.4427 34.2945 11.5652C34.1388 11.6885 34.0306 11.8697 33.9812 12.1257C33.9004 12.5435 33.8879 12.9608 33.8925 13.3753C33.8942 13.5196 33.8978 13.663 33.9015 13.8059C33.9084 14.0757 33.9153 14.3439 33.9083 14.6131C33.9038 14.7838 33.8826 14.8912 33.8276 14.9577C33.7751 15.0211 33.6809 15.059 33.4949 15.0587C27.6371 15.049 21.7793 15.0489 15.9215 15.058C15.7366 15.0583 15.6378 15.0222 15.5829 14.9593C15.5267 14.8949 15.5043 14.7892 15.5082 14.6175C15.5171 14.2295 15.5151 13.8414 15.513 13.4541L15.513 13.4446C15.5109 13.054 15.5089 12.6641 15.5182 12.2747C15.5231 12.0699 15.4699 11.9048 15.3738 11.7717C15.2782 11.6393 15.1425 11.5417 14.9872 11.4671C14.7096 11.3337 14.3627 11.3316 14.0828 11.4999C13.8008 11.6694 13.5953 12.0064 13.5907 12.5333C13.585 13.1711 13.5858 13.8093 13.5866 14.4471C13.5871 14.8183 13.5875 15.1893 13.5867 15.5601L13.5867 15.5716C13.5864 15.7465 13.586 15.9087 13.5275 16.0715C12.4792 18.9853 11.3067 21.8495 9.97905 24.6449C8.44076 27.8838 6.78688 31.0602 4.6062 33.9229L4.57546 33.9633C3.97529 34.7513 3.37457 35.5401 2.55653 36.1741C2.49626 36.0118 2.4367 35.8528 2.37796 35.6959C2.2342 35.312 2.0953 34.9411 1.9626 34.5677C1.77838 34.0493 1.51706 33.7268 1.18424 33.6406C0.850824 33.5541 0.4703 33.7111 0.0635637 34.0902L0.0476562 34.105V34.1268V34.1274C0.0476562 34.4999 0.0476562 34.8292 0.0655257 35.1876L0.065903 35.1951L0.0685045 35.2022C0.102754 35.2959 0.136896 35.3892 0.170917 35.4822C0.45166 36.2492 0.724132 36.9937 0.980603 37.7436C1.06325 37.9853 1.13503 38.1764 1.21273 38.3262C1.29074 38.4765 1.37615 38.588 1.48751 38.6682C1.70855 38.8273 2.01953 38.853 2.53339 38.853C5.02454 38.8531 7.5157 38.8529 10.0069 38.8528C22.336 38.8522 34.6652 38.8515 46.9943 38.8703C47.3623 38.8709 47.6449 38.8011 47.8741 38.65C48.103 38.4991 48.2732 38.2707 48.4234 37.9646C48.7343 37.3314 49.0629 36.709 49.3954 36.0792C49.6441 35.6081 49.895 35.1329 50.1422 34.6459ZM31.2809 26.9939L31.2811 26.9936C32.1896 25.2301 32.9846 23.4855 33.8327 21.6244C33.8487 21.5894 33.8646 21.5545 33.8806 21.5195C33.8822 21.5413 33.8837 21.562 33.8852 21.5816C33.8942 21.7015 33.9003 21.7828 33.9004 21.8652C33.9006 23.0885 33.9002 24.3119 33.8999 25.5352C33.8988 29.1445 33.8977 32.754 33.9115 36.3633C33.9124 36.6129 33.8762 36.7507 33.7954 36.8292C33.7144 36.9081 33.5752 36.9404 33.3301 36.9383C31.3317 36.9209 29.333 36.9231 27.3346 36.9252C26.6481 36.9259 25.9617 36.9267 25.2754 36.9266L24.8257 36.9266C27.5384 33.8915 29.4579 30.4708 31.2809 26.9939ZM20.5606 36.766C20.5812 36.8337 20.588 36.9147 20.5531 37.0257H20.5482H20.5432H20.5381H20.533H20.5279H20.5228H20.5177H20.5126H20.5076H20.5025H20.4974H20.4923H20.4872H20.4821H20.477H20.4719H20.4668H20.4617H20.4566H20.4515H20.4465H20.4414H20.4363H20.4312H20.4261H20.421H20.4159H20.4108H20.4056H20.4005H20.3954H20.3903H20.3852H20.3801H20.375H20.3699H20.3648H20.3597H20.3546H20.3495H20.3444H20.3392H20.3341H20.329H20.3239H20.3188H20.3137H20.3086H20.3034H20.2983H20.2932H20.2881H20.283H20.2778H20.2727H20.2676H20.2625H20.2574H20.2522H20.2471H20.242H20.2368H20.2317H20.2266H20.2215H20.2163H20.2112H20.2061H20.2009H20.1958H20.1907H20.1855H20.1804H20.1753H20.1701H20.165H20.1599H20.1547H20.1496H20.1444H20.1393H20.1342H20.129H20.1239H20.1187H20.1136H20.1085H20.1033H20.0982H20.093H20.0879H20.0827H20.0776H20.0724H20.0673H20.0621H20.057H20.0518H20.0467H20.0415H20.0364H20.0312H20.0261H20.0209H20.0158H20.0106H20.0054H20.0003H19.9951H19.99H19.9848H19.9797H19.9745H19.9693H19.9642H19.959H19.9538H19.9487H19.9435H19.9384H19.9332H19.928H19.9229H19.9177H19.9125H19.9074H19.9022H19.897H19.8918H19.8867H19.8815H19.8763H19.8712H19.866H19.8608H19.8556H19.8505H19.8453H19.8401H19.8349H19.8298H19.8246H19.8194H19.8142H19.809H19.8039H19.7987H19.7935H19.7883H19.7831H19.778H19.7728H19.7676H19.7624H19.7572H19.752H19.7469H19.7417H19.7365H19.7313H19.7261H19.7209H19.7157H19.7105H19.7053H19.7002H19.695H19.6898H19.6846H19.6794H19.6742H19.669H19.6638H19.6586H19.6534H19.6482H19.643H19.6378H19.6326H19.6274H19.6222H19.617H19.6118H19.6066H19.6014H19.5962H19.591H19.5858H19.5806H19.5754H19.5702H19.565H19.5598H19.5546H19.5494H19.5442H19.539H19.5338H19.5286H19.5234H19.5182H19.5129H19.5077H19.5025H19.4973H19.4921H19.4869H19.4817H19.4765H19.4713H19.466H19.4608H19.4556H19.4504H19.4452H19.44H19.4348H19.4295H19.4243H19.4191H19.4139H19.4087H19.4034H19.3982H19.393H19.3878H19.3826H19.3773H19.3721H19.3669H19.3617H19.3565H19.3512H19.346H19.3408H19.3356H19.3303H19.3251H19.3199H19.3147H19.3094H19.3042H19.299H19.2938H19.2885H19.2833H19.2781H19.2728H19.2676H19.2624H19.2571H19.2519H19.2467H19.2415H19.2362H19.231H19.2258H19.2205H19.2153H19.2101H19.2048H19.1996H19.1943H19.1891H19.1839H19.1786H19.1734H19.1682H19.1629H19.1577H19.1525H19.1472H19.142H19.1367H19.1315H19.1263H19.121H19.1158H19.1105H19.1053H19.1H19.0948H19.0896H19.0843H19.0791H19.0738H19.0686H19.0633H19.0581H19.0529H19.0476H19.0424H19.0371H19.0319H19.0266H19.0214H19.0161H19.0109H19.0056H19.0004H18.9951H18.9899H18.9846H18.9794H18.9741H18.9689H18.9636H18.9584H18.9531H18.9479H18.9426H18.9374H18.9321H18.9269H18.9216H18.9164H18.9111H18.9059H18.9006H18.8954H18.8901H18.8848H18.8796H18.8743H18.8691H18.8638H18.8586H18.8533H18.848H18.8428H18.8375H18.8323H18.827H18.8218H18.8165H18.8112H18.806H18.8007H18.7955H18.7902H18.7849H18.7797H18.7744H18.7692H18.7639H18.7586H18.7534H18.7481H18.7429H18.7376H18.7323H18.7271H18.7218H18.7165H18.7113H18.706H18.7007H18.6955H18.6902H18.6849H18.6797H18.6744H18.6692H18.6639H18.6586H18.6534H18.6481H18.6428H18.6376H18.6323H18.627H18.6218H18.6165H18.6112H18.6059H18.6007H18.5954H18.5901H18.5849H18.5796H18.5743H18.5691H18.5638H18.5585H18.5533H18.548H18.5427H18.5374H18.5322H18.5269H18.5216H18.5164H18.5111H18.5058H18.5005H18.4953H18.49H18.4847H18.4795H18.4742H18.4689H18.4636H18.4584H18.4531H18.4478H18.4425H18.4373H18.432H18.4267H18.4214H18.4162H18.4109H18.4056H18.4003H18.3951H18.3898H18.3845H18.3792H18.374H18.3687H18.3634H18.3581H18.3529H18.3476H18.3423H18.337H18.3318H18.3265H18.3212H18.3159H18.3106H18.3054H18.3001H18.2948H18.2895H18.2843H18.279H18.2737H18.2684H18.2631H18.2579H18.2526H18.2473H18.242H18.2368H18.2315H18.2262H18.2209H18.2156H18.2104H18.2051H18.1998H18.1945H18.1892H18.184H18.1787H18.1734H18.1681H18.1628H18.1576H18.1523H18.147H18.1417H18.1364H18.1312H18.1259H18.1206H18.1153H18.11H18.1048H18.0995H18.0942H18.0889H18.0836H18.0784H18.0731H18.0678H18.0625H18.0572H18.052H18.0467H18.0414H18.0361H18.0308H18.0255H18.0203H18.015H18.0097H18.0044H17.9991H17.9939H17.9886H17.9833H17.978H17.9727H17.9674H17.9622H17.9569H17.9516H17.9463H17.941H17.9358H17.9305H17.9252H17.9199L4.76067 37.0257C4.75004 36.9333 4.76912 36.8673 4.79987 36.8131C4.82892 36.7619 4.86784 36.721 4.91062 36.6761C4.92288 36.6632 4.93545 36.65 4.9482 36.6361C6.66327 34.7688 7.98316 32.6286 9.2398 30.4502C11.093 27.2375 12.5605 23.8414 13.9952 20.4343C14.4039 19.4638 14.7593 18.4702 15.1096 17.4784C15.1671 17.3159 15.2381 17.2174 15.3298 17.1581C15.4222 17.0983 15.5428 17.0735 15.7096 17.0737C19.4375 17.0785 23.1654 17.0788 26.8933 17.0792C28.9574 17.0794 31.0215 17.0796 33.0855 17.0806C33.1174 17.0806 33.1486 17.0795 33.1793 17.0783C33.3157 17.0734 33.4428 17.0688 33.5763 17.1663C33.4679 17.4259 33.3594 17.6863 33.2506 17.9472C32.9998 18.5491 32.7478 19.1538 32.493 19.7575C31.5531 21.9846 30.5316 24.1746 29.4102 26.3146C27.9593 29.0837 26.4327 31.8065 24.5042 34.278C23.9335 35.0092 23.2926 35.6728 22.5391 36.3286C22.45 36.1289 22.3635 35.9342 22.2786 35.7432C22.0632 35.2586 21.8584 34.7977 21.6483 34.3394C21.5556 34.1374 21.4542 33.9339 21.3056 33.7795C21.1548 33.6229 20.9569 33.518 20.6762 33.5099C20.2973 33.499 19.9872 33.6526 19.8084 33.9027C19.6295 34.1531 19.5865 34.494 19.7295 34.8483C19.8816 35.225 20.0452 35.5979 20.2085 35.97C20.2927 36.162 20.3769 36.3538 20.4593 36.5459C20.4717 36.5746 20.4866 36.6034 20.5008 36.6307C20.5054 36.6395 20.5099 36.6482 20.5142 36.6566C20.5325 36.6926 20.549 36.7278 20.5606 36.766ZM35.916 36.422C35.9266 33.5428 35.9256 30.6636 35.9246 27.7845C35.9243 26.9377 35.924 26.0909 35.924 25.2441L35.924 21.5646C38.2714 27.122 41.0919 32.3012 44.952 36.8652C44.9342 36.8868 44.9161 36.9014 44.8982 36.9115C44.8731 36.9257 44.8458 36.9325 44.8157 36.9349C44.785 36.9372 44.7528 36.9348 44.7176 36.9314C44.7125 36.9309 44.7073 36.9303 44.702 36.9298C44.6724 36.9268 44.6402 36.9235 44.6095 36.9235C43.6815 36.925 42.7534 36.9249 41.8252 36.9247C40.0199 36.9243 38.2144 36.9239 36.4091 36.936C36.1907 36.9375 36.0741 36.9 36.0086 36.8275C35.9417 36.7535 35.9152 36.6297 35.916 36.422Z" fill="#19344E" stroke="#19344E" stroke-width="0.1"/>
</g>
<defs>
<clipPath id="clip0_18_455">
<rect width="50" height="50" fill="white"/>
</clipPath>
</defs>
</svg>
